<svg width="244" height="105" viewBox="0 0 244 105" fill="none" xmlns="http://www.w3.org/2000/svg">
<path d="M112.054 63.8016L112 61.7273L114.027 61.0779L122.33 40.9481L125.828 39L135.226 61.0779L137.36 61.7273L137.216 63.8016H126.061L125.935 61.7273L128.554 61.0779L126.366 55.847L125.935 54.4582L121.9 44.8442L123.084 45.2771L119.784 54.3139L119.407 55.5404L117.488 61.0779L120.124 61.7273L120.017 63.8016H112.054ZM118.385 56.9113V54.0794C118.923 54.0914 119.539 54.1215 120.232 54.1696C120.926 54.2177 121.822 54.2417 122.922 54.2417C124.01 54.2417 124.913 54.2177 125.63 54.1696C126.348 54.1215 126.964 54.0914 127.478 54.0794V56.8571C126.999 56.8571 126.402 56.8451 125.684 56.8211C124.979 56.797 124.058 56.785 122.922 56.785C121.786 56.785 120.866 56.803 120.16 56.8391C119.467 56.8632 118.875 56.8872 118.385 56.9113Z" fill="black"/>
<path d="M138.597 39.7215H149.986C152.927 39.7215 155.438 40.1905 157.518 41.1284C159.611 42.0544 161.207 43.3951 162.307 45.1508C163.419 46.9064 163.975 49.0168 163.975 51.482C163.975 53.8749 163.389 55.9974 162.217 57.8492C161.058 59.7011 159.449 61.1561 157.393 62.2143C155.348 63.2725 153.005 63.8016 150.362 63.8016H138.597L138.454 61.7273L141.09 61.0779C141.162 60.9096 141.222 60.2302 141.27 59.0397C141.329 57.8372 141.359 56.3942 141.359 54.7107V48.8665C141.359 47.159 141.329 45.71 141.27 44.5195C141.222 43.317 141.162 42.6376 141.09 42.4812L138.454 41.8319L138.597 39.7215ZM147.098 42.4993C147.098 42.7999 147.086 43.4853 147.062 44.5556C147.051 45.6258 147.045 47.0628 147.045 48.8665V54.7107C147.045 55.4202 147.051 56.1657 147.062 56.9473C147.074 57.729 147.092 58.4565 147.116 59.1299C147.152 59.7912 147.194 60.3143 147.242 60.6991C147.828 60.8194 148.426 60.9156 149.035 60.9877C149.657 61.0479 150.243 61.0779 150.793 61.0779C153.077 61.0779 154.786 60.4105 155.922 59.0758C157.07 57.741 157.644 55.6426 157.644 52.7807C157.644 50.1953 157.267 48.139 156.514 46.6118C155.761 45.0847 154.774 43.9844 153.555 43.311C152.347 42.6376 151.038 42.3009 149.627 42.3009C149.245 42.3009 148.832 42.3189 148.39 42.355C147.947 42.3911 147.517 42.4392 147.098 42.4993Z" fill="black"/>
<path d="M167.957 39.7215H176.673L185.21 57.7771H183.954L191.595 39.7215H200.365L200.49 41.8319L197.908 42.4812C197.872 42.9141 197.866 43.5635 197.89 44.4293C197.914 45.2831 197.937 46.3353 197.961 47.5859L198.195 54.7468C198.266 56.4543 198.338 57.8853 198.41 59.0397C198.493 60.1941 198.559 60.8735 198.607 61.0779L201.243 61.7273L201.136 63.8016H189.819L189.676 61.7273L192.33 61.0779C192.354 60.8615 192.372 60.2001 192.384 59.0938C192.408 57.9755 192.408 56.5265 192.384 54.7468L192.276 40.93H194.177L184.474 63.8918H181.802L170.862 40.93H173.534L173.588 55.0714C173.588 57.1518 173.594 58.6368 173.606 59.5267C173.63 60.4045 173.666 60.9216 173.714 61.0779L176.529 61.7273L176.404 63.8016H167.401L167.293 61.7273L170.127 61.0779C170.162 60.9096 170.186 60.5308 170.198 59.9416C170.222 59.3523 170.24 58.6429 170.252 57.8131C170.276 56.9834 170.294 56.1356 170.306 55.2698L170.432 47.676C170.455 46.3052 170.461 45.1869 170.449 44.3211C170.437 43.4553 170.432 42.848 170.432 42.4993L167.831 41.8319L167.957 39.7215Z" fill="black"/>
<path d="M204.095 63.8016L203.987 61.7273L206.57 61.0779C206.642 60.9096 206.708 60.2181 206.767 59.0036C206.827 57.7771 206.857 56.3461 206.857 54.7107V48.8665C206.857 47.183 206.827 45.728 206.767 44.5014C206.708 43.2749 206.642 42.6015 206.57 42.4812L203.987 41.8319L204.095 39.7215H215.286L215.394 41.8319L212.811 42.4812C212.752 42.5895 212.698 42.9502 212.65 43.5635C212.614 44.1647 212.584 44.9283 212.56 45.8543C212.536 46.7802 212.524 47.7843 212.524 48.8665V54.7107C212.524 56.286 212.548 57.6869 212.596 58.9134C212.656 60.14 212.728 60.8615 212.811 61.0779L215.394 61.7273L215.286 63.8016H204.095Z" fill="black"/>
<path d="M238.099 56.1537V50.075C238.099 48.7763 238.087 47.5798 238.064 46.4856C238.052 45.3793 238.022 44.4714 237.974 43.7619C237.938 43.0404 237.884 42.6195 237.812 42.4993L234.997 41.8319L235.104 39.7215H243.874L244 41.8319L241.382 42.4993C241.334 42.6195 241.286 43.0344 241.238 43.7439C241.202 44.4413 241.172 45.3432 241.148 46.4495C241.124 47.5438 241.112 48.7523 241.112 50.075V57.6869C241.112 58.9976 241.107 60.146 241.095 61.132C241.095 62.1181 241.095 63.0741 241.095 64H238.566L222.03 45.0426H224.326V52.9971C224.326 55.1857 224.349 57.0195 224.397 58.4986C224.445 59.9776 224.517 60.8374 224.612 61.0779L227.5 61.7273L227.357 63.8016H218.425L218.317 61.7273L220.9 61.0779C220.948 60.9096 220.99 60.4466 221.026 59.689C221.073 58.9194 221.109 57.9514 221.133 56.785C221.169 55.6186 221.187 54.3559 221.187 52.9971V47.64C221.187 46.9906 221.169 46.3052 221.133 45.5837C221.097 44.8622 221.055 44.2128 221.008 43.6356C220.972 43.0584 220.936 42.6797 220.9 42.4993L218.317 41.8319L218.425 39.7215H224.971L239.821 56.1537H238.099Z" fill="black"/>
<path d="M22.6631 8.26835C37.3827 -0.930118 57.5425 -3.35634 76.7246 5.63457C81.9752 9.94892 84.2836 16.7221 83.084 23.1424C83.0563 23.1628 83.0297 23.1855 83.0019 23.2059C83.0249 23.2092 83.0483 23.2114 83.0713 23.2146C83.0688 23.2275 83.0679 23.2408 83.0654 23.2537C83.0816 23.2429 83.0972 23.2313 83.1133 23.2205C85.6546 23.5754 88.3114 23.4609 90.9629 22.8006C92.9832 22.2973 94.858 21.5132 96.5556 20.5027C106.119 32.4374 106.498 47.5104 102.907 69.492C96.6665 54.038 80.915 44.8292 60.1103 41.5545C28.0141 36.5026 11.9654 27.5865 22.6631 8.26835Z" fill="#1D164F"/>
<path d="M4.66537 28.8932C11.3389 43.0926 38.0863 56.1694 44.3275 56.1695C73.6355 56.1698 98.7134 75.4877 83.8539 94.8053C67.7518 105.444 40.0201 109.096 21.2269 94.0113C16.3361 88.9934 14.2286 81.8792 15.4017 74.9957C15.5048 74.8933 15.607 74.7897 15.7122 74.6891C12.8685 74.6497 9.96205 75.1511 7.14193 76.2594C6.94464 76.3369 6.74888 76.4172 6.55502 76.4996C-1.36425 62.1314 -2.24656 45.4114 4.66537 28.8932Z" fill="#2EBEF2"/>
</svg>
