<svg width="244" height="105" viewBox="0 0 244 105" fill="none" xmlns="http://www.w3.org/2000/svg">
<path d="M112.053 63.8016L111.999 61.7273L114.026 61.0779L122.33 40.9481L125.827 39L135.225 61.0779L137.359 61.7273L137.216 63.8016H126.06L125.935 61.7273L128.553 61.0779L126.365 55.8471L125.935 54.4582L121.899 44.8442L123.083 45.2771L119.783 54.3139L119.407 55.5404L117.488 61.0779L120.124 61.7273L120.016 63.8016H112.053ZM118.384 56.9113V54.0794C118.922 54.0914 119.538 54.1215 120.232 54.1696C120.925 54.2177 121.822 54.2417 122.922 54.2417C124.01 54.2417 124.913 54.2177 125.63 54.1696C126.347 54.1215 126.963 54.0914 127.477 54.0794V56.8572C126.999 56.8572 126.401 56.8451 125.684 56.8211C124.978 56.797 124.058 56.785 122.922 56.785C121.786 56.785 120.865 56.803 120.16 56.8391C119.466 56.8632 118.874 56.8872 118.384 56.9113Z" fill="white"/>
<path d="M138.597 39.7215H149.985C152.927 39.7215 155.438 40.1905 157.518 41.1284C159.61 42.0544 161.207 43.3952 162.307 45.1508C163.419 46.9065 163.974 49.0169 163.974 51.482C163.974 53.875 163.389 55.9974 162.217 57.8492C161.057 59.7011 159.449 61.1561 157.392 62.2143C155.348 63.2725 153.004 63.8016 150.362 63.8016H138.597L138.453 61.7273L141.09 61.0779C141.161 60.9096 141.221 60.2302 141.269 59.0397C141.329 57.8372 141.359 56.3942 141.359 54.7107V48.8665C141.359 47.159 141.329 45.71 141.269 44.5195C141.221 43.317 141.161 42.6376 141.09 42.4813L138.453 41.8319L138.597 39.7215ZM147.098 42.4993C147.098 42.7999 147.086 43.4853 147.062 44.5556C147.05 45.6258 147.044 47.0628 147.044 48.8665V54.7107C147.044 55.4202 147.05 56.1657 147.062 56.9473C147.074 57.729 147.092 58.4565 147.116 59.1299C147.152 59.7913 147.194 60.3143 147.241 60.6992C147.827 60.8194 148.425 60.9156 149.035 60.9878C149.657 61.0479 150.242 61.0779 150.792 61.0779C153.076 61.0779 154.786 60.4105 155.922 59.0758C157.07 57.741 157.644 55.6426 157.644 52.7807C157.644 50.1953 157.267 48.139 156.514 46.6118C155.76 45.0847 154.774 43.9844 153.554 43.311C152.347 42.6376 151.038 42.3009 149.627 42.3009C149.244 42.3009 148.832 42.3189 148.389 42.355C147.947 42.3911 147.516 42.4392 147.098 42.4993Z" fill="white"/>
<path d="M167.956 39.7215H176.672L185.209 57.7771H183.954L191.594 39.7215H200.364L200.49 41.8319L197.907 42.4813C197.871 42.9142 197.865 43.5635 197.889 44.4293C197.913 45.2831 197.937 46.3353 197.961 47.5859L198.194 54.7468C198.266 56.4543 198.338 57.8853 198.409 59.0397C198.493 60.1941 198.559 60.8735 198.607 61.0779L201.243 61.7273L201.135 63.8016H189.819L189.675 61.7273L192.329 61.0779C192.353 60.8615 192.371 60.2001 192.383 59.0938C192.407 57.9755 192.407 56.5265 192.383 54.7468L192.276 40.93H194.177L184.474 63.8918H181.802L170.861 40.93H173.534L173.588 55.0714C173.588 57.1518 173.594 58.6369 173.605 59.5267C173.629 60.4045 173.665 60.9216 173.713 61.0779L176.529 61.7273L176.403 63.8016H167.4L167.292 61.7273L170.126 61.0779C170.162 60.9096 170.186 60.5308 170.198 59.9416C170.222 59.3523 170.24 58.6429 170.252 57.8131C170.276 56.9834 170.294 56.1357 170.305 55.2699L170.431 47.6761C170.455 46.3052 170.461 45.1869 170.449 44.3211C170.437 43.4553 170.431 42.848 170.431 42.4993L167.83 41.8319L167.956 39.7215Z" fill="white"/>
<path d="M204.095 63.8016L203.987 61.7273L206.57 61.0779C206.641 60.9096 206.707 60.2182 206.767 59.0036C206.827 57.7771 206.857 56.3461 206.857 54.7107V48.8665C206.857 47.183 206.827 45.728 206.767 44.5015C206.707 43.2749 206.641 42.6015 206.57 42.4813L203.987 41.8319L204.095 39.7215H215.286L215.394 41.8319L212.811 42.4813C212.751 42.5895 212.697 42.9502 212.649 43.5635C212.614 44.1648 212.584 44.9283 212.56 45.8543C212.536 46.7802 212.524 47.7843 212.524 48.8665V54.7107C212.524 56.286 212.548 57.6869 212.596 58.9134C212.655 60.14 212.727 60.8615 212.811 61.0779L215.394 61.7273L215.286 63.8016H204.095Z" fill="white"/>
<path d="M238.099 56.1537V50.0751C238.099 48.7764 238.087 47.5799 238.063 46.4856C238.051 45.3793 238.021 44.4714 237.973 43.7619C237.938 43.0404 237.884 42.6195 237.812 42.4993L234.996 41.8319L235.104 39.7215H243.874L243.999 41.8319L241.381 42.4993C241.333 42.6195 241.285 43.0344 241.238 43.7439C241.202 44.4413 241.172 45.3432 241.148 46.4495C241.124 47.5438 241.112 48.7523 241.112 50.0751V57.6869C241.112 58.9976 241.106 60.146 241.094 61.132C241.094 62.1181 241.094 63.0741 241.094 64H238.565L222.029 45.0426H224.325V52.9971C224.325 55.1857 224.349 57.0195 224.397 58.4986C224.445 59.9776 224.516 60.8374 224.612 61.0779L227.499 61.7273L227.356 63.8016H218.424L218.317 61.7273L220.899 61.0779C220.947 60.9096 220.989 60.4466 221.025 59.689C221.073 58.9194 221.109 57.9514 221.133 56.785C221.168 55.6186 221.186 54.356 221.186 52.9971V47.64C221.186 46.9906 221.168 46.3052 221.133 45.5837C221.097 44.8622 221.055 44.2129 221.007 43.6357C220.971 43.0585 220.935 42.6797 220.899 42.4993L218.317 41.8319L218.424 39.7215H224.971L239.821 56.1537H238.099Z" fill="white"/>
<mask id="path-2-inside-1_3558_7" fill="white">
<path d="M22.6618 8.26855C37.382 -0.930504 57.5433 -3.35654 76.7262 5.63574C81.9751 9.94993 84.2836 16.7225 83.0846 23.1416C83.0566 23.1623 83.0297 23.1845 83.0016 23.2051C83.0249 23.2085 83.0486 23.2106 83.0719 23.2139C83.0694 23.2271 83.0677 23.2407 83.0651 23.2539C83.0815 23.2429 83.0975 23.2308 83.1139 23.2197C85.655 23.5744 88.3115 23.461 90.9626 22.8008C92.9829 22.2975 94.8577 21.5134 96.5553 20.5029C106.119 32.4376 106.497 47.5107 102.907 69.4922C96.6662 54.0382 80.9138 44.8293 60.109 41.5547C28.0132 36.5028 11.9643 27.5865 22.6618 8.26855Z"/>
</mask>
<path d="M22.6618 8.26855C37.382 -0.930504 57.5433 -3.35654 76.7262 5.63574C81.9751 9.94993 84.2836 16.7225 83.0846 23.1416C83.0566 23.1623 83.0297 23.1845 83.0016 23.2051C83.0249 23.2085 83.0486 23.2106 83.0719 23.2139C83.0694 23.2271 83.0677 23.2407 83.0651 23.2539C83.0815 23.2429 83.0975 23.2308 83.1139 23.2197C85.655 23.5744 88.3115 23.461 90.9626 22.8008C92.9829 22.2975 94.8577 21.5134 96.5553 20.5029C106.119 32.4376 106.497 47.5107 102.907 69.4922C96.6662 54.0382 80.9138 44.8293 60.109 41.5547C28.0132 36.5028 11.9643 27.5865 22.6618 8.26855Z" fill="#1D164F"/>
<path d="M22.6618 8.26855L22.1318 7.42053L21.9123 7.55769L21.7869 7.78411L22.6618 8.26855ZM76.7262 5.63574L77.3612 4.8632L77.2643 4.78354L77.1507 4.73029L76.7262 5.63574ZM83.0846 23.1416L83.6799 23.9451L83.9955 23.7113L84.0676 23.3252L83.0846 23.1416ZM83.0016 23.2051L82.4105 22.3985L80.439 23.8434L82.8579 24.1947L83.0016 23.2051ZM83.0719 23.2139L84.0542 23.4014L84.251 22.3709L83.2122 22.2238L83.0719 23.2139ZM83.0651 23.2539L82.0833 23.0642L81.6283 25.4183L83.6211 24.0851L83.0651 23.2539ZM83.1139 23.2197L83.2522 22.2293L82.8728 22.1764L82.5552 22.3904L83.1139 23.2197ZM90.9626 22.8008L91.2042 23.7711L91.2043 23.7711L90.9626 22.8008ZM96.5553 20.5029L97.3357 19.8776L96.7916 19.1986L96.0439 19.6436L96.5553 20.5029ZM102.907 69.4922L101.98 69.8666L103.318 73.1802L103.894 69.6534L102.907 69.4922ZM60.109 41.5547L59.9536 42.5425V42.5425L60.109 41.5547ZM22.6618 8.26855L23.1917 9.11658C37.6345 0.0909213 57.4369 -2.30196 76.3018 6.5412L76.7262 5.63574L77.1507 4.73029C57.6496 -4.41111 37.1296 -1.95193 22.1318 7.42053L22.6618 8.26855ZM76.7262 5.63574L76.0913 6.40828C81.0511 10.4849 83.2355 16.8877 82.1016 22.958L83.0846 23.1416L84.0676 23.3252C85.3318 16.5573 82.8991 9.41493 77.3612 4.8632L76.7262 5.63574ZM83.0846 23.1416L82.4894 22.3381C82.4637 22.3571 82.4398 22.3758 82.4287 22.3845C82.4218 22.3899 82.4177 22.393 82.4143 22.3956C82.4111 22.398 82.4101 22.3988 82.4105 22.3985L83.0016 23.2051L83.5928 24.0116C83.6202 23.9915 83.6449 23.9723 83.6577 23.9623C83.674 23.9496 83.6775 23.9469 83.6799 23.9451L83.0846 23.1416ZM83.0016 23.2051L82.8579 24.1947C82.8859 24.1988 82.9115 24.2017 82.9217 24.2029C82.9365 24.2046 82.935 24.2044 82.9316 24.204L83.0719 23.2139L83.2122 22.2238C83.1856 22.22 83.1606 22.2172 83.1519 22.2161C83.1385 22.2146 83.1406 22.2148 83.1453 22.2155L83.0016 23.2051ZM83.0719 23.2139L82.0897 23.0263C82.0872 23.0394 82.0852 23.0506 82.0839 23.0586C82.0826 23.0662 82.0815 23.0733 82.0811 23.0757C82.0805 23.0795 82.0806 23.0789 82.0808 23.0776C82.0811 23.0759 82.0819 23.071 82.0833 23.0642L83.0651 23.2539L84.0469 23.4437C84.0495 23.4302 84.0515 23.4186 84.053 23.4102C84.0543 23.4022 84.0555 23.395 84.0559 23.392C84.0566 23.3878 84.0566 23.3882 84.0564 23.3891C84.0562 23.3904 84.0554 23.395 84.0542 23.4014L83.0719 23.2139ZM83.0651 23.2539L83.6211 24.0851C83.6441 24.0697 83.6643 24.0552 83.6709 24.0505C83.6757 24.047 83.6769 24.0462 83.6778 24.0456C83.6783 24.0452 83.6763 24.0466 83.6727 24.0491L83.1139 23.2197L82.5552 22.3904C82.5434 22.3983 82.5332 22.4054 82.5256 22.4108C82.5183 22.4159 82.5114 22.4208 82.5082 22.4232C82.5061 22.4246 82.5049 22.4255 82.5039 22.4262C82.5029 22.4269 82.5025 22.4272 82.5026 22.4272C82.5026 22.4272 82.5032 22.4267 82.5043 22.426C82.5053 22.4253 82.5069 22.4242 82.509 22.4228L83.0651 23.2539ZM83.1139 23.2197L82.9757 24.2101C85.6407 24.5821 88.4263 24.463 91.2042 23.7711L90.9626 22.8008L90.7209 21.8304C88.1967 22.4591 85.6693 22.5667 83.2522 22.2293L83.1139 23.2197ZM90.9626 22.8008L91.2043 23.7711C93.3206 23.244 95.2862 22.4221 97.0668 21.3622L96.5553 20.5029L96.0439 19.6436C94.4292 20.6047 92.6451 21.3511 90.7208 21.8304L90.9626 22.8008ZM96.5553 20.5029L95.775 21.1283C105.047 32.6988 105.507 47.3734 101.92 69.331L102.907 69.4922L103.894 69.6534C107.488 47.648 107.191 32.1764 97.3357 19.8776L96.5553 20.5029ZM102.907 69.4922L103.834 69.1177C97.4067 53.2014 81.241 43.8685 60.2645 40.5668L60.109 41.5547L59.9536 42.5425C80.5867 45.7901 95.9256 54.875 101.98 69.8666L102.907 69.4922ZM60.109 41.5547L60.2645 40.5668C44.2127 38.0403 32.4183 34.5733 25.9573 29.4763C22.765 26.9579 20.9353 24.089 20.477 20.772C20.0152 17.4299 20.9231 13.4726 23.5366 8.753L22.6618 8.26855L21.7869 7.78411C19.0517 12.7235 17.9541 17.125 18.4958 21.0457C19.041 24.9916 21.2238 28.2896 24.7185 31.0465C31.6315 36.5001 43.9095 40.0172 59.9536 42.5425L60.109 41.5547Z" fill="white" mask="url(#path-2-inside-1_3558_7)"/>
<mask id="path-4-inside-2_3558_7" fill="white">
<path d="M4.66525 28.8932C11.3385 43.0924 38.0845 56.1689 44.3264 56.1695C73.6343 56.1697 98.7139 75.4877 83.8547 94.8053C67.7541 105.443 40.024 109.097 21.2307 94.0162C16.3366 88.9981 14.2272 81.8814 15.4006 74.9957C15.5037 74.8932 15.6059 74.7897 15.7112 74.6891C12.8674 74.6497 9.961 75.1511 7.14084 76.2594C6.94374 76.3368 6.74857 76.4173 6.5549 76.4996C-1.36409 62.1312 -2.24662 45.4113 4.66525 28.8932Z"/>
</mask>
<path d="M4.66525 28.8932C11.3385 43.0924 38.0845 56.1689 44.3264 56.1695C73.6343 56.1697 98.7139 75.4877 83.8547 94.8053C67.7541 105.443 40.024 109.097 21.2307 94.0162C16.3366 88.9981 14.2272 81.8814 15.4006 74.9957C15.5037 74.8932 15.6059 74.7897 15.7112 74.6891C12.8674 74.6497 9.961 75.1511 7.14084 76.2594C6.94374 76.3368 6.74857 76.4173 6.5549 76.4996C-1.36409 62.1312 -2.24662 45.4113 4.66525 28.8932Z" fill="#2EBEF2"/>
<path d="M4.66525 28.8932L5.57029 28.4678L4.61223 26.4293L3.74276 28.5072L4.66525 28.8932ZM44.3264 56.1695L44.3263 57.1695H44.3264L44.3264 56.1695ZM83.8547 94.8053L84.406 95.6396L84.5454 95.5475L84.6473 95.415L83.8547 94.8053ZM21.2307 94.0162L20.5148 94.7144L20.5573 94.758L20.6048 94.7962L21.2307 94.0162ZM15.4006 74.9957L14.6956 74.2865L14.4686 74.5121L14.4148 74.8277L15.4006 74.9957ZM15.7112 74.6891L16.4021 75.412L18.1691 73.723L15.725 73.6892L15.7112 74.6891ZM7.14084 76.2594L6.77508 75.3287L6.77505 75.3287L7.14084 76.2594ZM6.5549 76.4996L5.67911 76.9823L6.11499 77.7732L6.94607 77.4199L6.5549 76.4996ZM4.66525 28.8932L3.76022 29.3185C7.23004 36.7015 15.8091 43.6491 24.1383 48.7104C28.3294 51.2572 32.5117 53.3591 36.0512 54.8278C37.8207 55.5619 39.4403 56.1424 40.8278 56.5409C42.1971 56.9341 43.4048 57.1694 44.3263 57.1695L44.3264 56.1695L44.3265 55.1695C43.6875 55.1695 42.694 54.996 41.3798 54.6186C40.0839 54.2464 38.5377 53.6941 36.8177 52.9805C33.3783 51.5534 29.2867 49.4986 25.1769 47.0012C16.9043 41.9743 8.77372 35.284 5.57029 28.4678L4.66525 28.8932ZM44.3264 56.1695L44.3264 57.1695C58.7926 57.1696 72.1324 61.9435 79.9855 68.9878C83.9051 72.5037 86.4071 76.536 87.081 80.7758C87.7509 84.9915 86.636 89.5493 83.0621 94.1956L83.8547 94.8053L84.6473 95.415C88.503 90.4025 89.8253 85.3015 89.0562 80.4619C88.2909 75.6466 85.4774 71.2273 81.321 67.499C73.0221 60.0548 59.1682 55.1696 44.3264 55.1695L44.3264 56.1695ZM83.8547 94.8053L83.3034 93.9709C67.4526 104.444 40.2162 107.969 21.8565 93.2363L21.2307 94.0162L20.6048 94.7962C39.8318 110.224 68.0557 106.443 84.406 95.6396L83.8547 94.8053ZM21.2307 94.0162L21.9466 93.318C17.2832 88.5364 15.2649 81.7447 16.3864 75.1637L15.4006 74.9957L14.4148 74.8277C13.1895 82.018 15.39 89.4597 20.5148 94.7144L21.2307 94.0162ZM15.4006 74.9957L16.1056 75.705C16.2178 75.5934 16.3063 75.5036 16.4021 75.412L15.7112 74.6891L15.0202 73.9662C14.9055 74.0758 14.7896 74.1931 14.6956 74.2865L15.4006 74.9957ZM15.7112 74.6891L15.725 73.6892C12.7537 73.6481 9.71825 74.172 6.77508 75.3287L7.14084 76.2594L7.5066 77.1901C10.2038 76.1301 12.981 75.6514 15.6973 75.689L15.7112 74.6891ZM7.14084 76.2594L6.77505 75.3287C6.56781 75.4101 6.36403 75.4942 6.16373 75.5793L6.5549 76.4996L6.94607 77.4199C7.13311 77.3404 7.31966 77.2636 7.50662 77.1901L7.14084 76.2594ZM6.5549 76.4996L7.4307 76.0169C-0.333476 61.9295 -1.21247 45.5305 5.58775 29.2792L4.66525 28.8932L3.74276 28.5072C-3.28076 45.2921 -2.39471 62.333 5.67911 76.9823L6.5549 76.4996Z" fill="white" mask="url(#path-4-inside-2_3558_7)"/>
</svg>
