<svg width="71" height="70" viewBox="0 0 71 70" fill="none" xmlns="http://www.w3.org/2000/svg">
<path d="M15.2412 5.56079C25.141 -0.625813 38.6996 -2.25742 51.6006 3.79028C55.1309 6.69226 56.6824 11.248 55.875 15.5657C55.8569 15.5791 55.8394 15.5934 55.8213 15.6067C55.8362 15.6089 55.8512 15.6104 55.8662 15.6125C55.8645 15.6212 55.864 15.6302 55.8623 15.6389C55.8729 15.6318 55.8829 15.6236 55.8935 15.6165C57.6032 15.8554 59.391 15.7785 61.1748 15.3342C62.5334 14.9958 63.7939 14.4678 64.9355 13.7883C71.3673 21.8147 71.6218 31.9515 69.207 46.7346C65.0099 36.3417 54.4163 30.1488 40.4248 27.9465C18.8396 24.549 8.04671 18.5527 15.2412 5.56079Z" fill="#1D164F"/>
<path d="M3.13717 19.4313C7.62512 28.9808 25.6135 37.7749 29.811 37.7751C49.5212 37.7753 66.3872 50.767 56.394 63.7585C45.5655 70.913 26.9157 73.3697 14.2768 63.2263C10.9866 59.8516 9.56788 55.0663 10.3569 50.4362C10.4264 50.3671 10.4959 50.298 10.5669 50.2302C8.65432 50.2037 6.69887 50.5405 4.80221 51.2858C4.66985 51.3378 4.5387 51.3917 4.40865 51.447C-0.917029 41.7841 -1.51114 30.54 3.13717 19.4313Z" fill="#2EBEF2"/>
</svg>
